<svg xmlns="http://www.w3.org/2000/svg" fill="none" viewBox="0 0 24 24"><path stroke="currentColor" stroke-linecap="round" stroke-linejoin="round" stroke-width="1.5" d="M12 21a9.004 9.004 0 008.716-6.747M12 21a9.004 9.004 0 01-8.716-6.747M12 21c2.485 0 4.5-4.03 4.5-9S14.485 3 12 3s-4.5 4.03-4.5 9 2.015 9 4.5 9zM21 12c0 .51-.043 1.009-.127 1.494m0 0A17.933 17.933 0 0112 15c-2.998 0-5.78-.746-8.127-2.053m16.254 0A9.004 9.004 0 0112 21m-8.127-7.553A9.004 9.004 0 0112 3m8.127 7.447c0-.51.043-1.009.127-1.494M3.873 13.494A17.933 17.933 0 0012 15m-8.127-1.506c0 .51-.043 1.009-.127 1.494m0 0A17.933 17.933 0 0012 15"/></svg>